<?xml version="1.0" encoding="UTF-8" standalone="no"?>
<svg
   xmlns:dc="http://purl.org/dc/elements/1.1/"
   xmlns:cc="http://creativecommons.org/ns#"
   xmlns:rdf="http://www.w3.org/1999/02/22-rdf-syntax-ns#"
   xmlns:svg="http://www.w3.org/2000/svg"
   xmlns="http://www.w3.org/2000/svg"
   xmlns:sodipodi="http://sodipodi.sourceforge.net/DTD/sodipodi-0.dtd"
   xmlns:inkscape="http://www.inkscape.org/namespaces/inkscape"
   sodipodi:docname="augmented_reality.svg"
   inkscape:version="1.0 (4035a4fb49, 2020-05-01)"
   id="svg8"
   version="1.1"
   viewBox="0 0 264.58333 264.58333"
   height="1000"
   width="1000">
  <defs
     id="defs2" />
  <sodipodi:namedview
     inkscape:window-maximized="1"
     inkscape:window-y="-8"
     inkscape:window-x="1912"
     inkscape:window-height="1027"
     inkscape:window-width="1920"
     inkscape:bbox-paths="true"
     inkscape:bbox-nodes="true"
     inkscape:snap-bbox-edge-midpoints="true"
     inkscape:snap-bbox-midpoints="true"
     inkscape:object-paths="true"
     inkscape:snap-intersection-paths="true"
     inkscape:snap-smooth-nodes="true"
     inkscape:snap-midpoints="true"
     inkscape:snap-text-baseline="true"
     inkscape:snap-center="true"
     inkscape:snap-object-midpoints="true"
     inkscape:snap-page="true"
     inkscape:snap-bbox="true"
     inkscape:pagecheckerboard="true"
     units="px"
     showgrid="false"
     inkscape:document-rotation="0"
     inkscape:current-layer="layer1"
     inkscape:document-units="mm"
     inkscape:cy="430.26194"
     inkscape:cx="-463.22575"
     inkscape:zoom="0.49497475"
     inkscape:pageshadow="2"
     inkscape:pageopacity="0.0"
     borderopacity="1.0"
     bordercolor="#666666"
     pagecolor="#ffffff"
     id="base" />
  <metadata
     id="metadata5">
    <rdf:RDF>
      <cc:Work
         rdf:about="">
        <dc:format>image/svg+xml</dc:format>
        <dc:type
           rdf:resource="http://purl.org/dc/dcmitype/StillImage" />
        <dc:title></dc:title>
      </cc:Work>
    </rdf:RDF>
  </metadata>
  <g
     id="layer1"
     inkscape:groupmode="layer"
     inkscape:label="Layer 1">
    <path
       id="path64"
       d="M 102.16313,249.73244 81.769185,234.58314 102.01913,234.422 c 11.13745,-0.0885 29.29033,-0.0885 40.33972,0 l 20.08978,0.16114 -19.16039,14.8479 c -10.53819,8.16634 -19.5138,14.98352 -19.94577,15.14928 -0.43197,0.16576 -9.96268,-6.51578 -21.17934,-14.84788 z M 46.72647,212.92083 C 45.110459,212.16515 36.870147,204.32987 22.456029,189.84332 4.0392873,171.33404 0.57414949,167.57572 0.25975906,165.76906 0.05485853,164.59158 -0.03369975,128.1201 0.06297317,84.721365 L 0.23874422,5.8145413 1.60298,3.9019822 c 2.9734366,-4.16852259 -2.883704,-3.89842748 84.536091,-3.89842748 66.092939,0 79.308249,0.13894305 80.955269,0.85051177 1.10986,0.47957311 11.6029,10.55030851 24.05925,23.09094451 18.0543,18.176502 22.1619,22.617686 22.47927,24.304861 0.71978,3.826505 0.4418,155.532018 -0.28981,158.167268 -0.85847,3.09205 -3.90451,6.13812 -6.99656,6.99656 -1.69749,0.47127 -25.47561,0.66833 -79.79566,0.66131 -74.300306,-0.009 -77.474928,-0.0555 -79.824346,-1.15418 z M 193.22403,127.23317 V 61.171652 H 127.1625 61.100979 V 127.23317 193.2947 H 127.1625 193.22403 Z M 30.214019,44.663754 20.118357,34.568097 v 62.07657 62.076563 l 9.939812,9.95357 9.939814,9.95357 0.155843,-61.93448 0.155866,-61.934478 z M 168.75678,30.281762 158.67795,20.18902 H 96.59235 34.506758 l 10.078831,10.092742 10.078829,10.092721 h 62.085612 62.0856 z M 234.20663,132.17483 V 91.58996 l 15.31765,19.76038 c 8.42471,10.86824 15.18936,20.0947 15.03257,20.5033 -0.30271,0.7889 -28.12295,38.48942 -29.52472,40.01038 -0.69359,0.75255 -0.8255,-5.58998 -0.8255,-39.68919 z"
       style="fill:#ffffff;stroke-width:0.61168" />
  </g>
</svg>
