<?xml version="1.0" encoding="UTF-8" standalone="no"?>
<svg
   xmlns:dc="http://purl.org/dc/elements/1.1/"
   xmlns:cc="http://creativecommons.org/ns#"
   xmlns:rdf="http://www.w3.org/1999/02/22-rdf-syntax-ns#"
   xmlns:svg="http://www.w3.org/2000/svg"
   xmlns="http://www.w3.org/2000/svg"
   xmlns:sodipodi="http://sodipodi.sourceforge.net/DTD/sodipodi-0.dtd"
   xmlns:inkscape="http://www.inkscape.org/namespaces/inkscape"
   inkscape:version="1.0 (4035a4fb49, 2020-05-01)"
   sodipodi:docname="c_plus_plus.svg"
   id="svg8"
   version="1.1"
   viewBox="0 0 264.58332 264.58334"
   height="1000"
   width="1000">
  <defs
     id="defs2" />
  <sodipodi:namedview
     inkscape:pagecheckerboard="true"
     inkscape:snap-page="true"
     inkscape:snap-center="true"
     inkscape:snap-object-midpoints="true"
     inkscape:snap-midpoints="true"
     inkscape:snap-smooth-nodes="true"
     inkscape:snap-intersection-paths="true"
     inkscape:object-paths="true"
     inkscape:snap-bbox-midpoints="true"
     inkscape:snap-bbox-edge-midpoints="true"
     inkscape:bbox-nodes="true"
     inkscape:bbox-paths="true"
     inkscape:snap-bbox="true"
     units="px"
     inkscape:window-maximized="1"
     inkscape:window-y="-8"
     inkscape:window-x="1912"
     inkscape:window-height="1027"
     inkscape:window-width="1920"
     showgrid="false"
     inkscape:document-rotation="0"
     inkscape:current-layer="layer1"
     inkscape:document-units="mm"
     inkscape:cy="435.92081"
     inkscape:cx="524.34993"
     inkscape:zoom="0.70710678"
     inkscape:pageshadow="2"
     inkscape:pageopacity="0.0"
     borderopacity="1.0"
     bordercolor="#666666"
     pagecolor="#ffffff"
     id="base" />
  <metadata
     id="metadata5">
    <rdf:RDF>
      <cc:Work
         rdf:about="">
        <dc:format>image/svg+xml</dc:format>
        <dc:type
           rdf:resource="http://purl.org/dc/dcmitype/StillImage" />
        <dc:title></dc:title>
      </cc:Work>
    </rdf:RDF>
  </metadata>
  <g
     id="layer1"
     inkscape:groupmode="layer"
     inkscape:label="Layer 1">
    <path
       style="fill:#ffffff;stroke:none;stroke-width:0.0576488"
       id="path105"
       d="m 128.19591,264.29447 c -1.78713,-0.23062 -4.38131,-1.03769 -5.76489,-1.72947 -1.38357,-0.69179 -24.500788,-13.60514 -51.4228,-28.70914 -34.704621,-19.48532 -49.808625,-28.24796 -51.941634,-30.15037 -3.401282,-3.11303 -6.226079,-8.01319 -7.14846,-12.45215 -0.922381,-4.32368 -0.864733,-113.568286 0,-117.834299 1.03768,-4.727209 3.574231,-9.16617 7.033164,-12.33686 2.305953,-2.07536 16.084034,-10.088551 52.05693,-30.265657 26.922012,-15.104003 49.98158,-28.0173516 51.3075,-28.6514878 5.99549,-2.99774275 13.77808,-2.8824443 20.63829,0.3458933 1.96008,0.9223812 25.30786,13.9510255 51.94163,28.8820845 36.72234,20.638295 49.05921,27.902053 51.13457,29.862114 3.45893,3.401284 5.99547,8.128491 6.80256,12.855689 0.4612,2.651862 0.57649,20.580658 0.4612,60.243083 -0.173,51.59573 -0.28826,56.72648 -1.15299,59.37834 -1.38357,3.97777 -4.8425,8.82027 -8.01319,11.12622 -5.01544,3.7472 -102.7303,58.28302 -105.43979,58.8595 -4.26602,0.9224 -7.03316,1.09533 -10.49209,0.57651 z m 20.8689,-64.68204 c 12.68274,-3.34365 23.75132,-9.80031 32.74455,-19.08178 2.99773,-3.05539 5.30369,-5.88019 5.1884,-6.22607 -0.11527,-0.3459 -5.76488,-3.86249 -12.50982,-7.72497 l -12.2792,-7.14845 -3.80482,3.17069 c -7.84026,6.51432 -16.31464,9.62737 -26.28789,9.62737 -8.99322,0 -15.96873,-2.19067 -23.11721,-7.32142 -11.933309,-8.47439 -18.332345,-23.2325 -16.429921,-37.58706 2.421252,-18.2747 16.487581,-32.341024 34.762261,-34.762277 11.35684,-1.498878 23.05957,2.133012 31.82218,9.915597 l 3.0554,2.76715 12.2792,-7.148456 c 6.74494,-3.862478 12.39451,-7.379062 12.50982,-7.724955 0.11525,-0.345894 -2.19067,-3.113039 -5.0731,-6.110773 C 168.31952,70.190704 151.65899,63.15754 132.05839,63.15754 c -11.41449,0 -20.7536,2.133011 -30.55392,7.033164 -19.831219,9.915603 -33.782235,28.651489 -37.587061,50.327456 -1.325925,7.78261 -0.807085,21.21479 1.210626,28.65149 3.401282,12.68276 9.166171,22.65602 18.44764,31.93748 10.492101,10.54975 22.194815,16.71818 36.952925,19.60061 2.7095,0.51885 7.14846,0.69179 13.54749,0.57651 7.8979,-0.17301 10.43445,-0.46121 14.98872,-1.67182 z m 40.93067,-55.74646 v -5.76491 h 5.76491 5.76488 v -5.76488 -5.76488 h -5.76488 -5.76491 v -5.7649 -5.76487 h -5.76488 -5.76487 v 5.76487 5.7649 h -5.7649 -5.76488 v 5.76488 5.76488 h 5.76488 5.7649 v 5.76491 5.76488 h 5.76487 5.76488 z m 40.35423,0 v -5.76491 h 5.76488 5.76491 v -5.76488 -5.76488 h -5.76491 -5.76488 v -5.7649 -5.76487 h -5.76488 -5.7649 v 5.76487 5.7649 h -5.76488 -5.76488 v 5.76488 5.76488 h 5.76488 5.76488 v 5.76491 5.76488 h 5.7649 5.76488 z" />
  </g>
</svg>
