<?xml version="1.0" encoding="UTF-8" standalone="no"?>
<svg
   xmlns:dc="http://purl.org/dc/elements/1.1/"
   xmlns:cc="http://creativecommons.org/ns#"
   xmlns:rdf="http://www.w3.org/1999/02/22-rdf-syntax-ns#"
   xmlns:svg="http://www.w3.org/2000/svg"
   xmlns="http://www.w3.org/2000/svg"
   xmlns:sodipodi="http://sodipodi.sourceforge.net/DTD/sodipodi-0.dtd"
   xmlns:inkscape="http://www.inkscape.org/namespaces/inkscape"
   sodipodi:docname="designer.svg"
   inkscape:version="1.0 (4035a4fb49, 2020-05-01)"
   id="svg8"
   version="1.1"
   viewBox="0 0 264.58333 264.58333"
   height="1000"
   width="1000">
  <defs
     id="defs2" />
  <sodipodi:namedview
     inkscape:window-maximized="1"
     inkscape:window-y="-8"
     inkscape:window-x="1912"
     inkscape:window-height="1027"
     inkscape:window-width="1920"
     inkscape:bbox-paths="true"
     inkscape:bbox-nodes="true"
     inkscape:snap-bbox-edge-midpoints="true"
     inkscape:snap-bbox-midpoints="true"
     inkscape:object-paths="true"
     inkscape:snap-intersection-paths="true"
     inkscape:snap-smooth-nodes="true"
     inkscape:snap-midpoints="true"
     inkscape:snap-text-baseline="true"
     inkscape:snap-center="true"
     inkscape:snap-object-midpoints="true"
     inkscape:snap-page="true"
     inkscape:snap-bbox="true"
     inkscape:pagecheckerboard="true"
     units="px"
     showgrid="false"
     inkscape:document-rotation="0"
     inkscape:current-layer="layer1"
     inkscape:document-units="mm"
     inkscape:cy="430.26194"
     inkscape:cx="-463.22575"
     inkscape:zoom="0.49497475"
     inkscape:pageshadow="2"
     inkscape:pageopacity="0.0"
     borderopacity="1.0"
     bordercolor="#666666"
     pagecolor="#ffffff"
     id="base" />
  <metadata
     id="metadata5">
    <rdf:RDF>
      <cc:Work
         rdf:about="">
        <dc:format>image/svg+xml</dc:format>
        <dc:type
           rdf:resource="http://purl.org/dc/dcmitype/StillImage" />
        <dc:title></dc:title>
      </cc:Work>
    </rdf:RDF>
  </metadata>
  <g
     id="layer1"
     inkscape:groupmode="layer"
     inkscape:label="Layer 1">
    <path
       id="path48"
       d="m 171.99805,223.22692 c -22.7331,-22.74603 -41.33291,-41.61086 -41.33291,-41.92189 0,-0.311 1.62578,-2.21541 3.61287,-4.23202 l 3.61286,-3.66656 38.00162,37.99875 38.00162,37.99877 17.76998,-17.77611 17.76998,-17.77609 -1.65707,-1.58756 -1.65705,-1.58756 -3.3649,3.3649 -3.3649,3.3649 -3.93936,-3.91308 -3.93935,-3.91307 3.37806,-3.40836 3.37807,-3.40836 -4.18961,-4.18961 -4.18959,-4.18959 -6.10834,6.091 -6.10832,6.09099 -3.92231,-3.92232 -3.92234,-3.92232 6.091,-6.10834 6.09101,-6.10832 -4.18961,-4.18961 -4.18959,-4.18959 -3.40838,3.37806 -3.40836,3.37807 -3.91308,-3.93936 -3.91307,-3.93937 3.38008,-3.38006 3.38006,-3.38008 -4.19475,-4.19473 -4.19474,-4.19476 -6.10834,6.09098 -6.10831,6.09101 -3.92234,-3.92232 -3.92232,-3.92231 6.09101,-6.10834 6.091,-6.10832 -4.18961,-4.18961 -4.18961,-4.18959 -3.40836,3.37805 -3.40836,3.37807 -3.91412,-3.94043 -3.91412,-3.94041 7.31992,-7.30485 7.31992,-7.30486 41.74469,41.74203 c 22.95955,22.95811 41.74465,41.98758 41.74465,42.28772 0,0.71492 -49.98906,50.69287 -50.70414,50.69287 -0.30154,0 -19.14805,-18.61039 -41.88114,-41.35641 z M 10.361081,256.2362 c -1.4847627,-0.82293 -2.7262893,-2.81043 -2.7448713,-4.39408 -0.00697,-0.59639 2.5269873,-10.57973 5.6310753,-22.18516 L 18.891082,208.55614 53.496167,173.9479 88.101246,139.33965 44.050626,95.286533 C 19.822783,71.057333 3.0491802e-6,50.989021 3.0491802e-6,50.690312 3.0491802e-6,49.983201 49.987495,0 50.694659,0 50.990985,0 71.055693,19.821128 95.282885,44.046951 L 139.33231,88.09389 177.42423,50.07443 c 35.31974,-35.252564 38.35361,-38.142258 41.68793,-39.706818 15.46937,-7.2586613 33.17631,1.402541 37.11123,18.152643 1.49832,6.378028 0.12172,14.008643 -3.55227,19.689913 -0.88334,1.365963 -45.48898,46.358046 -99.12363,99.982452 l -97.517536,97.49889 -21.102194,5.64416 c -11.606207,3.1043 -21.590155,5.63844 -22.18655,5.63145 -0.596398,-0.006 -1.667455,-0.33592 -2.380129,-0.73092 z M 226.2227,38.361029 215.24397,27.382302 l -93.25211,93.250928 -93.252122,93.25092 10.974419,10.98422 10.97442,10.98422 93.256433,-93.25641 93.25641,-93.256422 z M 110.19403,117.2501 c 7.68074,-7.67646 13.96496,-14.21058 13.96496,-14.52025 0,-0.30969 -1.46443,-2.01221 -3.25426,-3.783378 l -3.25428,-3.220308 3.37977,-3.410081 3.37977,-3.410082 -4.18961,-4.189611 -4.18961,-4.18959 -6.10832,6.090984 -6.10834,6.091003 -3.922312,-3.922315 -3.922315,-3.922315 6.091007,-6.10834 6.091,-6.10832 -4.18961,-4.18961 -4.18961,-4.189584 -3.408361,3.378047 -3.40836,3.378074 -3.913074,-3.939365 -3.913074,-3.939359 3.380062,-3.380061 3.380082,-3.380082 -4.194754,-4.194733 -4.194754,-4.194754 -6.10832,6.090983 -6.10834,6.091004 -3.922315,-3.922315 -3.922315,-3.922316 6.091003,-6.10834 6.091004,-6.108319 L 71.426,35.922013 67.231246,31.727259 63.851171,35.107341 60.471103,38.487402 56.531739,34.574329 52.59238,30.661255 55.966296,27.257085 59.34021,23.852909 55.024868,19.512104 50.70952,15.171299 32.944405,32.930292 15.179287,50.689287 55.435573,90.948296 c 22.14096,22.142454 40.377168,40.258994 40.524914,40.258994 0.147746,0 6.552823,-6.28074 14.233543,-13.95719 z"
       style="fill:#ffffff;stroke-width:0.542178" />
  </g>
</svg>
