<?xml version="1.0" encoding="UTF-8" standalone="no"?>
<svg
   xmlns:dc="http://purl.org/dc/elements/1.1/"
   xmlns:cc="http://creativecommons.org/ns#"
   xmlns:rdf="http://www.w3.org/1999/02/22-rdf-syntax-ns#"
   xmlns:svg="http://www.w3.org/2000/svg"
   xmlns="http://www.w3.org/2000/svg"
   xmlns:sodipodi="http://sodipodi.sourceforge.net/DTD/sodipodi-0.dtd"
   xmlns:inkscape="http://www.inkscape.org/namespaces/inkscape"
   sodipodi:docname="developer.svg"
   inkscape:version="1.0 (4035a4fb49, 2020-05-01)"
   id="svg8"
   version="1.1"
   viewBox="0 0 264.58333 264.58333"
   height="1000"
   width="1000">
  <defs
     id="defs2" />
  <sodipodi:namedview
     inkscape:window-maximized="1"
     inkscape:window-y="-8"
     inkscape:window-x="1912"
     inkscape:window-height="1027"
     inkscape:window-width="1920"
     inkscape:bbox-paths="true"
     inkscape:bbox-nodes="true"
     inkscape:snap-bbox-edge-midpoints="true"
     inkscape:snap-bbox-midpoints="true"
     inkscape:object-paths="true"
     inkscape:snap-intersection-paths="true"
     inkscape:snap-smooth-nodes="true"
     inkscape:snap-midpoints="true"
     inkscape:snap-text-baseline="true"
     inkscape:snap-center="true"
     inkscape:snap-object-midpoints="true"
     inkscape:snap-page="true"
     inkscape:snap-bbox="true"
     inkscape:pagecheckerboard="true"
     units="px"
     showgrid="false"
     inkscape:document-rotation="0"
     inkscape:current-layer="layer1"
     inkscape:document-units="mm"
     inkscape:cy="430.26194"
     inkscape:cx="-463.22575"
     inkscape:zoom="0.49497475"
     inkscape:pageshadow="2"
     inkscape:pageopacity="0.0"
     borderopacity="1.0"
     bordercolor="#666666"
     pagecolor="#ffffff"
     id="base" />
  <metadata
     id="metadata5">
    <rdf:RDF>
      <cc:Work
         rdf:about="">
        <dc:format>image/svg+xml</dc:format>
        <dc:type
           rdf:resource="http://purl.org/dc/dcmitype/StillImage" />
        <dc:title></dc:title>
      </cc:Work>
    </rdf:RDF>
  </metadata>
  <g
     id="layer1"
     inkscape:groupmode="layer"
     inkscape:label="Layer 1">
    <path
       id="path32"
       d="m 41.506813,248.60804 c 0,-17.30796 -0.640602,-24.59075 -2.968388,-33.74672 C 35.602574,203.31363 30.872941,192.96554 22.925877,180.7022 8.51375,158.46245 2.0573781,135.52441 3.0741375,110.17346 3.8562102,90.674001 7.7140174,74.168261 15.09465,58.74332 30.957006,25.592263 59.575328,6.153378 100.55479,0.69484798 108.44628,-0.35629886 131.7429,-0.18132672 140.288,0.99327466 193.70952,8.3365565 224.45552,39.167382 233.32412,94.286094 l 0.96841,6.018756 13.16502,22.67743 c 7.24075,12.4726 13.434,23.67077 13.76279,24.88483 0.81955,3.02624 0.30291,8.40955 -1.06078,11.05324 -1.99945,3.87625 -4.91712,6.00237 -15.4339,11.24686 l -10.07128,5.02232 v 15.11199 c 0,16.38191 -0.51205,20.99154 -3.09671,27.87701 -4.92502,13.12024 -15.96115,23.30913 -30.03374,27.72809 -3.82552,1.20123 -4.95614,1.28769 -15.84625,1.21145 l -11.72683,-0.0822 v 8.77371 8.77372 h -5.51849 -5.5185 v -14.8474 -14.84746 l 2.06943,0.2223 c 4.65045,0.49953 19.93735,1.32769 24.36707,1.32008 9.66871,-0.0167 16.93641,-3.03791 23.81663,-9.90087 4.59494,-4.58342 6.4883,-7.59265 8.69572,-13.82055 l 1.467,-4.13886 0.18083,-20.02085 0.18083,-20.02083 12.51749,-6.26643 c 6.88463,-3.44655 12.98988,-6.79098 13.56725,-7.43208 0.57738,-0.64107 1.02935,-1.88385 1.00439,-2.76174 -0.0292,-1.02797 -4.80735,-9.79372 -13.4229,-24.62514 l -13.37754,-23.02902 -1.02645,-6.693988 C 217.19073,60.137633 200.6552,34.83375 173.12288,21.465724 c -9.38062,-4.554657 -22.27152,-8.132148 -35.04248,-9.725001 -7.5773,-0.945087 -30.62947,-0.940749 -37.52582,0.0063 -13.430557,1.845811 -24.379634,5.074609 -35.042485,10.333743 -29.437517,14.519163 -47.30269,42.778926 -51.035841,80.730214 -2.615549,26.58974 3.085272,49.38374 18.169347,72.64779 11.283136,17.40188 17.458547,34.22204 19.319888,52.62219 0.317966,3.14322 0.578117,12.64194 0.578117,21.10829 v 15.39333 h -5.518501 -5.518501 z m 68.919497,-89.70373 c -0.79277,-0.43085 -1.76772,-1.57116 -2.16653,-2.534 -0.66604,-1.60795 -0.0361,-4.97122 7.72964,-41.27309 4.65012,-21.737338 8.71549,-40.099839 9.03412,-40.805505 0.64921,-1.437716 3.02246,-2.855827 4.77929,-2.855827 1.96779,0 4.22474,1.519936 4.98603,3.357842 0.66802,1.612752 0.0451,4.944189 -7.71771,41.2768 -4.64441,21.73736 -8.82664,40.18423 -9.29382,40.99306 -1.48229,2.56614 -4.58621,3.34337 -7.35102,1.84072 z M 80.412259,142.56389 C 79.405371,142.07324 60.583926,117.59666 59.956767,115.9623 59.623925,115.09491 78.630063,89.634972 80.306012,88.703191 c 4.564147,-2.537544 9.91595,2.604914 7.469072,7.176924 -0.351446,0.656672 -3.711499,5.283975 -7.466799,10.282915 -3.75532,4.99894 -6.705923,9.40663 -6.556939,9.79489 0.148921,0.38826 3.219224,4.62251 6.822745,9.40943 3.603542,4.78693 6.841705,9.24593 7.195925,9.9089 1.146402,2.14551 0.760729,4.03089 -1.23223,6.02385 -1.949222,1.94924 -3.895002,2.35066 -6.125527,1.26379 z m 76.887061,-0.33234 c -2.45739,-1.52451 -3.32466,-4.51201 -2.01915,-6.9553 0.35422,-0.66297 3.59238,-5.12197 7.19592,-9.9089 3.60352,-4.78692 6.67376,-9.02117 6.82275,-9.40943 0.14892,-0.38826 -2.80164,-4.79595 -6.55694,-9.79489 -3.7553,-4.99894 -7.11536,-9.626243 -7.4668,-10.282915 -2.44688,-4.57201 2.90492,-9.714468 7.46907,-7.176924 1.66408,0.925211 20.6833,26.388589 20.35306,27.249189 -0.56824,1.4808 -18.5113,24.9235 -19.93155,26.04068 -1.79107,1.40883 -3.84524,1.49235 -5.86636,0.23849 z"
       style="fill:#ffffff;stroke-width:0.551849" />
  </g>
</svg>
