<?xml version="1.0" encoding="UTF-8" standalone="no"?>
<svg
   xmlns:dc="http://purl.org/dc/elements/1.1/"
   xmlns:cc="http://creativecommons.org/ns#"
   xmlns:rdf="http://www.w3.org/1999/02/22-rdf-syntax-ns#"
   xmlns:svg="http://www.w3.org/2000/svg"
   xmlns="http://www.w3.org/2000/svg"
   xmlns:sodipodi="http://sodipodi.sourceforge.net/DTD/sodipodi-0.dtd"
   xmlns:inkscape="http://www.inkscape.org/namespaces/inkscape"
   inkscape:version="1.0 (4035a4fb49, 2020-05-01)"
   sodipodi:docname="java.svg"
   id="svg8"
   version="1.1"
   viewBox="0 0 264.58332 264.58334"
   height="1000"
   width="1000">
  <defs
     id="defs2" />
  <sodipodi:namedview
     inkscape:pagecheckerboard="true"
     inkscape:snap-page="true"
     inkscape:snap-center="true"
     inkscape:snap-object-midpoints="true"
     inkscape:snap-midpoints="true"
     inkscape:snap-smooth-nodes="true"
     inkscape:snap-intersection-paths="true"
     inkscape:object-paths="true"
     inkscape:snap-bbox-midpoints="true"
     inkscape:snap-bbox-edge-midpoints="true"
     inkscape:bbox-nodes="true"
     inkscape:bbox-paths="true"
     inkscape:snap-bbox="true"
     units="px"
     inkscape:window-maximized="1"
     inkscape:window-y="-8"
     inkscape:window-x="1912"
     inkscape:window-height="1027"
     inkscape:window-width="1920"
     showgrid="false"
     inkscape:document-rotation="0"
     inkscape:current-layer="layer1"
     inkscape:document-units="mm"
     inkscape:cy="435.92081"
     inkscape:cx="524.34993"
     inkscape:zoom="0.70710678"
     inkscape:pageshadow="2"
     inkscape:pageopacity="0.0"
     borderopacity="1.0"
     bordercolor="#666666"
     pagecolor="#ffffff"
     id="base" />
  <metadata
     id="metadata5">
    <rdf:RDF>
      <cc:Work
         rdf:about="">
        <dc:format>image/svg+xml</dc:format>
        <dc:type
           rdf:resource="http://purl.org/dc/dcmitype/StillImage" />
        <dc:title></dc:title>
      </cc:Work>
    </rdf:RDF>
  </metadata>
  <g
     id="layer1"
     inkscape:groupmode="layer"
     inkscape:label="Layer 1">
    <path
       id="path58"
       d="m 129.89582,264.07014 c -15.18121,-0.96864 -33.84791,-4.16291 -48.130554,-8.23616 -8.058158,-2.2981 -17.557984,-5.54608 -17.217436,-5.88663 0.100879,-0.10088 3.655846,0.50776 7.899918,1.35254 8.759093,1.74349 19.393528,3.31921 31.464922,4.66223 12.0286,1.33825 46.60715,1.32846 57.90343,-0.0164 23.28164,-2.77175 40.45909,-7.20774 55.07446,-14.22269 7.31178,-3.50944 12.91361,-6.96205 17.19328,-10.59682 l 2.89034,-2.4548 -0.34474,2.51516 c -2.9363,21.42272 -51.56191,36.40378 -106.73362,32.88357 z M 100.97747,244.91425 C 55.773131,242.5176 27.682889,232.59719 27.60925,219.00339 c -0.04727,-8.72628 16.560753,-16.22177 33.002122,-14.89443 5.119262,0.41328 6.225618,0.78189 11.369845,3.78809 l 3.557759,2.07909 -3.942227,-0.19907 c -9.710151,-0.49034 -19.450295,3.40469 -19.450295,7.77808 0,0.82858 0.380856,2.05028 0.846351,2.71486 7.173393,10.24145 62.140105,15.90267 106.955445,11.01571 24.35449,-2.65577 40.98639,-8.30144 46.15973,-15.66882 1.40459,-2.00027 1.60367,-2.73777 1.6018,-5.93372 l -0.002,-3.64954 2.56567,1.3964 c 3.32687,1.81071 6.09037,4.90279 6.54429,7.32237 0.20507,1.09314 0.0705,2.95636 -0.31227,4.32348 -3.44586,12.3074 -29.08376,21.55075 -69.3652,25.00853 -11.72709,1.00666 -34.95257,1.42417 -46.16264,0.82983 z m 3.79636,-30.9903 c -12.305212,-1.17694 -21.280363,-3.91596 -25.228892,-7.69931 -1.987128,-1.90401 -2.315887,-2.52647 -2.315887,-4.38487 0,-5.032 5.911408,-10.1406 13.532595,-11.69478 4.162105,-0.84877 5.348453,-0.72052 4.176429,0.45151 -1.123733,1.12372 -0.733389,3.46246 0.776066,4.6498 2.720879,2.14024 6.308589,2.80233 16.737279,3.08878 14.07387,0.38657 28.21437,-1.3878 38.46928,-4.82717 l 3.84627,-1.29 8.32762,5.32655 c 4.58019,2.9296 8.40738,5.40029 8.50486,5.49043 0.39466,0.36489 -7.97407,3.96874 -12.71855,5.47702 -11.33652,3.6039 -23.37584,5.37821 -38.69123,5.70218 -5.57688,0.11798 -12.514,-0.0126 -15.41584,-0.29014 z m 80.77132,-26.01809 c 12.31705,-9.5122 18.83654,-16.73721 23.14022,-25.6444 1.85434,-3.83785 2.19271,-5.08957 2.38953,-8.83933 0.24885,-4.7413 -0.49257,-7.03514 -3.22405,-9.97466 -3.58042,-3.85311 -9.92379,-6.14996 -15.57062,-5.63792 -3.49378,0.3168 -3.41245,0.17432 1.28938,-2.25894 4.54072,-2.34989 8.22726,-3.24003 13.41864,-3.24003 5.99613,0 9.79229,1.33957 13.42465,4.73723 4.19657,3.92539 6.25406,9.1937 6.2365,15.96884 -0.044,16.95067 -14.34381,30.17713 -38.14969,35.286 l -4.80305,1.03075 z m -80.29831,-0.12602 c -17.476582,-1.34867 -32.822835,-5.74852 -36.542136,-10.47685 -2.09587,-2.66446 -0.891665,-6.55912 2.929124,-9.47338 2.983314,-2.27548 8.075172,-4.5816 11.911256,-5.39465 4.751578,-1.00707 4.776111,-1.00099 3.084497,0.76467 -2.074378,2.16518 -1.802707,4.64705 0.692077,6.32249 4.626694,3.10722 14.136102,4.56419 29.665972,4.54527 15.34431,-0.0187 27.31726,-1.4328 39.89402,-4.71183 l 3.33344,-0.86909 7.60483,4.63785 c 4.18265,2.55083 7.60483,4.81733 7.60483,5.03668 0,0.71776 -14.30295,4.93655 -22.04628,6.50276 -4.16489,0.84241 -10.69451,1.89344 -14.51028,2.33563 -8.89843,1.03118 -25.40646,1.41438 -33.62135,0.78045 z M 85.234135,159.74548 c -20.754013,-1.7723 -31.140439,-4.3044 -35.786828,-8.7244 -1.749833,-1.66457 -2.103567,-2.35209 -2.101908,-4.0853 0.0041,-4.37318 3.779046,-7.71021 11.471959,-10.1414 8.020673,-2.53477 23.376329,-4.50577 34.688698,-4.45252 l 5.870392,0.0276 -5.316953,1.55739 c -7.816405,2.28949 -13.476708,4.71637 -15.540979,6.66323 -2.269623,2.14052 -2.283674,2.78962 -0.08031,3.71024 3.4799,1.454 10.082062,1.98453 28.142814,2.26145 28.17978,0.43207 56.93556,-1.41107 76.84881,-4.92571 2.25591,-0.39816 2.2918,-0.43451 -4.80512,4.86646 -10.1889,7.6105 -9.86252,7.46217 -19.74381,8.97307 -20.5387,3.14048 -31.81307,4.04464 -53.36722,4.27985 -9.832913,0.10729 -18.958708,0.1028 -20.279548,-0.0101 z m 55.014095,-19.41363 c 7.25737,-7.62906 9.22157,-15.16333 5.82495,-22.34316 -0.87988,-1.85991 -3.39858,-5.97731 -5.59712,-9.1498 -7.30568,-10.54212 -9.49003,-16.985717 -8.31826,-24.537991 1.49425,-9.630606 6.19114,-17.215648 14.5702,-23.529461 7.50691,-5.656622 16.73364,-9.746319 28.74135,-12.739429 5.7459,-1.432257 17.02975,-3.374097 17.44026,-3.001302 0.0773,0.07018 -4.0053,2.909455 -9.07242,6.309494 -14.85322,9.966505 -25.88757,19.434839 -29.85553,25.618382 -3.36189,5.239034 -2.64392,11.020498 2.49979,20.129627 8.26607,14.63865 9.27549,20.11348 5.28192,28.64773 -2.0714,4.42658 -7.83802,9.98138 -13.28908,12.80097 -3.2362,1.67395 -9.04692,3.91345 -10.154,3.91345 -0.048,0 0.81954,-0.95333 1.92794,-2.11851 z m -14.99906,-6.79021 c -6.60074,-4.91088 -12.33024,-9.96399 -18.27743,-16.1197 C 95.454589,105.50096 90.037186,95.285471 90.037186,85.4888 c 0,-10.275817 6.777424,-19.163781 26.950444,-35.343021 12.31311,-9.875401 19.64467,-16.2288 23.13767,-20.050698 9.04411,-9.895706 12.46247,-18.555734 10.65232,-26.9864742 -0.99374,-4.6283201 -0.38361,-4.1692954 2.55357,1.9211361 7.13219,14.7890851 4.51449,28.7236521 -8.41376,44.7882121 -2.02729,2.519103 -8.91102,9.934425 -15.29715,16.478491 -15.32011,15.698952 -19.30355,21.690987 -19.30355,29.037039 0,2.431859 0.52673,4.243101 2.74895,9.452665 3.72687,8.73689 8.70537,18.59014 12.94226,25.61485 1.93353,3.20575 3.45204,5.89213 3.37446,5.96972 -0.0776,0.0776 -1.93754,-1.19551 -4.13323,-2.82908 z"
       style="fill:#ffffff;stroke-width:0.533673" />
  </g>
</svg>
