<?xml version="1.0" encoding="UTF-8" standalone="no"?>
<svg
   xmlns:dc="http://purl.org/dc/elements/1.1/"
   xmlns:cc="http://creativecommons.org/ns#"
   xmlns:rdf="http://www.w3.org/1999/02/22-rdf-syntax-ns#"
   xmlns:svg="http://www.w3.org/2000/svg"
   xmlns="http://www.w3.org/2000/svg"
   xmlns:sodipodi="http://sodipodi.sourceforge.net/DTD/sodipodi-0.dtd"
   xmlns:inkscape="http://www.inkscape.org/namespaces/inkscape"
   inkscape:version="1.0 (4035a4fb49, 2020-05-01)"
   sodipodi:docname="server.svg"
   id="svg8"
   version="1.1"
   viewBox="0 0 264.58332 264.58334"
   height="1000"
   width="1000">
  <defs
     id="defs2">
    <filter
       id="filter283"
       inkscape:label="Invert"
       style="color-interpolation-filters:sRGB;">
      <feColorMatrix
         id="feColorMatrix281"
         result="fbSourceGraphic"
         values="-1 0 0 0 1 0 -1 0 0 1 0 0 -1 0 1 0.21 0.72 0.07 1 0 " />
      <feColorMatrix
         id="feColorMatrix287"
         values="0 0 0 -1 0 0 0 0 -1 0 0 0 0 -1 0 0 0 0 1 0"
         in="fbSourceGraphic"
         result="fbSourceGraphicAlpha" />
      <feColorMatrix
         in="fbSourceGraphic"
         result="fbSourceGraphic"
         values="-1 0 0 0 1 0 -1 0 0 1 0 0 -1 0 1 0.21 0.72 0.07 1 0 "
         id="feColorMatrix289" />
      <feColorMatrix
         id="feColorMatrix291"
         values="0 0 0 -1 0 0 0 0 -1 0 0 0 0 -1 0 0 0 0 1 0"
         in="fbSourceGraphic"
         result="fbSourceGraphicAlpha" />
      <feColorMatrix
         in="fbSourceGraphic"
         result="fbSourceGraphic"
         values="-1 0 0 0 1 0 -1 0 0 1 0 0 -1 0 1 0.21 0.72 0.07 1 0 "
         id="feColorMatrix293" />
      <feColorMatrix
         id="feColorMatrix295"
         values="0 0 0 -1 0 0 0 0 -1 0 0 0 0 -1 0 0 0 0 1 0"
         in="fbSourceGraphic"
         result="fbSourceGraphicAlpha" />
      <feColorMatrix
         in="fbSourceGraphic"
         result="fbSourceGraphic"
         values="-1 0 0 0 1 0 -1 0 0 1 0 0 -1 0 1 0.21 0.72 0.07 1 0 "
         id="feColorMatrix297" />
      <feColorMatrix
         id="feColorMatrix299"
         values="0 0 0 -1 0 0 0 0 -1 0 0 0 0 -1 0 0 0 0 1 0"
         in="fbSourceGraphic"
         result="fbSourceGraphicAlpha" />
      <feColorMatrix
         in="fbSourceGraphic"
         result="color2"
         values="-1 0 0 0 1 0 -1 0 0 1 0 0 -1 0 1 0.21 0.72 0.07 1 0 "
         id="feColorMatrix301" />
    </filter>
  </defs>
  <sodipodi:namedview
     inkscape:pagecheckerboard="true"
     inkscape:snap-page="true"
     inkscape:snap-center="true"
     inkscape:snap-object-midpoints="true"
     inkscape:snap-midpoints="true"
     inkscape:snap-smooth-nodes="true"
     inkscape:snap-intersection-paths="true"
     inkscape:object-paths="true"
     inkscape:snap-bbox-midpoints="true"
     inkscape:snap-bbox-edge-midpoints="true"
     inkscape:bbox-nodes="true"
     inkscape:bbox-paths="true"
     inkscape:snap-bbox="true"
     units="px"
     inkscape:window-maximized="1"
     inkscape:window-y="-8"
     inkscape:window-x="1912"
     inkscape:window-height="1027"
     inkscape:window-width="1920"
     showgrid="false"
     inkscape:document-rotation="0"
     inkscape:current-layer="layer1"
     inkscape:document-units="mm"
     inkscape:cy="467.60727"
     inkscape:cx="225.1997"
     inkscape:zoom="0.70710678"
     inkscape:pageshadow="2"
     inkscape:pageopacity="0.0"
     borderopacity="1.0"
     bordercolor="#666666"
     pagecolor="#ffffff"
     id="base" />
  <metadata
     id="metadata5">
    <rdf:RDF>
      <cc:Work
         rdf:about="">
        <dc:format>image/svg+xml</dc:format>
        <dc:type
           rdf:resource="http://purl.org/dc/dcmitype/StillImage" />
        <dc:title></dc:title>
      </cc:Work>
    </rdf:RDF>
  </metadata>
  <g
     id="layer1"
     inkscape:groupmode="layer"
     inkscape:label="Layer 1">
    <path
       d=""
       id="path164"
       style="fill:#000000;stroke-width:2.93981" />
    <path
       d=""
       id="path303"
       style="fill:#000000;stroke-width:0.264583" />
    <path
       d=""
       id="path285"
       style="fill:#000000;stroke-width:0.264583" />
    <path
       d=""
       id="path277"
       style="fill:#000000;stroke-width:0.264583" />
    <path
       id="path439"
       d="M 23.92561,263.75608 C 15.081379,261.83403 7.0369669,255.45232 3.0769954,247.21667 -0.23865353,240.32104 -0.07329343,246.7599 0.08017937,130.5253 L 0.22011469,24.550762 1.6465288,20.644634 C 4.9483663,11.602824 11.616512,4.9346944 20.658324,1.632853 L 24.564446,0.20643685 84.735228,0.06102093 c 66.282612,-0.16001752 64.120202,-0.25442785 71.203852,3.10678007 4.93206,2.3402562 11.39819,8.851189 13.82544,13.921204 3.41717,7.137741 3.22903,0.428407 3.22903,115.158865 0,88.59372 -0.11521,105.06584 -0.75642,108.09141 -2.40313,11.34 -12.09975,21.03678 -23.43949,23.43985 -5.12784,1.08666 -119.863148,1.06539 -124.872022,-0.0232 z m 69.056781,-61.12151 c 5.563189,-2.39322 9.206849,-8.06088 9.206849,-14.3211 0,-6.12099 -2.898418,-11.12394 -8.12029,-14.0165 -2.539558,-1.40675 -3.299241,-1.56331 -7.58523,-1.56331 -4.346956,0 -5.01729,0.14322 -7.67376,1.63996 -9.017067,5.08036 -10.911955,17.37852 -3.810758,24.73259 4.770383,4.94024 11.590589,6.27838 17.983189,3.52836 z M 147.129,131.01613 c 1.53175,-0.80896 2.87747,-2.11179 3.92011,-3.79517 l 1.58767,-2.56334 V 77.250309 c 0,-26.074013 -0.19042,-48.305446 -0.42301,-49.403206 -0.48193,-2.273789 -2.92608,-5.306201 -5.3447,-6.631026 -1.51637,-0.830591 -6.07729,-0.899099 -59.856132,-0.899099 -32.018085,0 -58.86525,0.18202 -59.660365,0.404565 -1.84759,0.517036 -4.963154,3.246055 -6.122822,5.363147 -0.827485,1.510665 -0.899109,5.498922 -0.899109,50.065478 v 48.424062 l 1.178773,2.20462 c 1.175897,2.19926 3.153121,3.95755 5.513356,4.90288 0.752566,0.30143 24.326323,0.51245 59.510014,0.5327 l 58.263775,0.0336 z M 37.265828,121.4039 c -2.562745,-0.89868 -5.941002,-4.50887 -6.367511,-6.80468 -0.170419,-0.91736 -0.23636,-7.28264 -0.146516,-14.14505 l 0.163338,-12.477127 1.420447,-2.144755 c 0.858542,-1.296322 2.344453,-2.592044 3.756251,-3.275499 l 2.335802,-1.130723 48.675948,0.140415 48.675953,0.140415 1.86104,1.27532 c 1.02357,0.701437 2.43495,2.112191 3.13638,3.135003 1.24802,1.819819 1.27876,2.132454 1.43514,14.585361 0.13461,10.71537 0.0246,13.07965 -0.69588,14.96627 -1.03327,2.7056 -3.74551,5.20839 -6.46168,5.96268 -1.32827,0.36886 -17.71496,0.54834 -48.835429,0.53486 -38.790451,-0.016 -47.200035,-0.14782 -48.953277,-0.76263 z m 1.092476,-50.611298 c -2.77269,-0.649892 -5.358303,-2.696296 -6.67991,-5.286857 -1.014489,-1.988578 -1.069773,-2.902198 -0.921257,-15.224767 l 0.157998,-13.109255 1.420447,-2.144875 c 0.854788,-1.290721 2.343901,-2.591903 3.739356,-3.267437 2.310899,-1.118683 2.485002,-1.122563 50.408782,-1.122563 47.92379,0 48.09788,0.004 50.40878,1.122563 1.39541,0.675514 2.88459,1.976736 3.73935,3.267397 l 1.42045,2.144855 0.15862,12.870529 c 0.14502,11.771249 0.0714,13.067831 -0.86325,15.180562 -1.24184,2.807385 -3.80444,4.86059 -6.97969,5.59221 -3.02187,0.696296 -93.033071,0.675334 -96.009634,-0.0224 z M 172.31608,261.24647 c 4.97216,-5.10158 8.38585,-11.65792 9.90878,-19.03086 0.75392,-3.64998 0.84233,-15.19399 0.84233,-109.96764 0,-115.830979 0.15902,-109.661703 -3.02053,-117.222151 -1.71031,-4.066885 -5.24063,-9.4326925 -8.09622,-12.305567 -1.22962,-1.2370554 -1.98116,-2.24920619 -1.67009,-2.24920619 0.31106,0 15.00092,4.53233609 32.64416,10.07188219 31.81898,9.990374 39.28326,12.715832 46.39319,16.939775 4.69268,2.787865 10.40576,8.162933 12.22078,11.497738 3.18761,5.856701 3.02931,1.008231 3.02931,92.777279 0,52.45846 -0.19402,84.98654 -0.51717,86.69034 -1.15541,6.09243 -5.38673,11.87791 -11.91985,16.29797 -1.74657,1.18167 -6.30905,3.71869 -10.13887,5.6378 -6.19282,3.10322 -10.51405,4.60416 -39.05463,13.56518 -17.65023,5.54175 -32.36987,10.0759 -32.71024,10.0759 -0.3404,0 0.59968,-1.25029 2.08905,-2.77844 z"
       style="fill:#ffffff;stroke-width:0.529224" />
  </g>
</svg>
