<?xml version="1.0" encoding="UTF-8" standalone="no"?>
<svg
   xmlns:dc="http://purl.org/dc/elements/1.1/"
   xmlns:cc="http://creativecommons.org/ns#"
   xmlns:rdf="http://www.w3.org/1999/02/22-rdf-syntax-ns#"
   xmlns:svg="http://www.w3.org/2000/svg"
   xmlns="http://www.w3.org/2000/svg"
   xmlns:sodipodi="http://sodipodi.sourceforge.net/DTD/sodipodi-0.dtd"
   xmlns:inkscape="http://www.inkscape.org/namespaces/inkscape"
   inkscape:version="1.0 (4035a4fb49, 2020-05-01)"
   sodipodi:docname="source_code.svg"
   id="svg8"
   version="1.1"
   viewBox="0 0 264.58332 264.58334"
   height="1000"
   width="1000">
  <defs
     id="defs2" />
  <sodipodi:namedview
     inkscape:pagecheckerboard="true"
     inkscape:snap-page="true"
     inkscape:snap-center="true"
     inkscape:snap-object-midpoints="true"
     inkscape:snap-midpoints="true"
     inkscape:snap-smooth-nodes="true"
     inkscape:snap-intersection-paths="true"
     inkscape:object-paths="true"
     inkscape:snap-bbox-midpoints="true"
     inkscape:snap-bbox-edge-midpoints="true"
     inkscape:bbox-nodes="true"
     inkscape:bbox-paths="true"
     inkscape:snap-bbox="true"
     units="px"
     inkscape:window-maximized="1"
     inkscape:window-y="-8"
     inkscape:window-x="1912"
     inkscape:window-height="1027"
     inkscape:window-width="1920"
     showgrid="false"
     inkscape:document-rotation="0"
     inkscape:current-layer="layer1"
     inkscape:document-units="mm"
     inkscape:cy="435.92081"
     inkscape:cx="524.34993"
     inkscape:zoom="0.70710678"
     inkscape:pageshadow="2"
     inkscape:pageopacity="0.0"
     borderopacity="1.0"
     bordercolor="#666666"
     pagecolor="#ffffff"
     id="base" />
  <metadata
     id="metadata5">
    <rdf:RDF>
      <cc:Work
         rdf:about="">
        <dc:format>image/svg+xml</dc:format>
        <dc:type
           rdf:resource="http://purl.org/dc/dcmitype/StillImage" />
        <dc:title></dc:title>
      </cc:Work>
    </rdf:RDF>
  </metadata>
  <g
     id="layer1"
     inkscape:groupmode="layer"
     inkscape:label="Layer 1">
    <path
       id="path74"
       d="m 99.958636,223.12285 c -5.078231,-1.78563 -9.233142,-3.51696 -9.233142,-3.84744 0,-0.74873 63.491116,-180.678775 63.899376,-181.087037 0.16326,-0.163257 4.66113,1.217809 9.99521,3.069102 8.77861,3.046809 9.67703,3.472409 9.474,4.487958 -0.16953,0.848429 -61.78515,175.765017 -63.36075,179.870957 -0.17479,0.45574 -0.59329,0.81161 -0.92978,0.79081 -0.33648,-0.0208 -4.7667,-1.49875 -9.844914,-3.28435 z M 45.943816,187.51616 C 25.238278,162.98171 0,132.61523 0,132.23695 0,131.99031 11.645065,117.92275 25.87792,100.97574 48.853617,73.61863 51.859426,70.237317 52.679484,70.826012 c 0.508009,0.364667 4.217446,3.407693 8.243202,6.762282 l 7.319543,6.099242 -2.303595,2.732454 c -1.266982,1.502831 -10.422695,12.426781 -20.34603,24.27543 l -18.042429,21.54299 20.213523,24.08969 c 11.117439,13.24934 20.261321,24.2693 20.319746,24.48884 0.09528,0.35809 -14.940152,13.01242 -15.931406,13.40836 -0.224641,0.0898 -3.01834,-2.92937 -6.208222,-6.70914 z m 158.940744,0.006 -8.14638,-6.76329 2.28866,-2.715 c 1.2588,-1.49324 10.40817,-12.40977 20.33194,-24.25896 l 18.04324,-21.54396 -18.04324,-21.54396 C 209.43501,98.847883 200.29015,87.936638 199.03692,86.44987 l -2.27863,-2.703201 7.287,-6.128475 c 4.00786,-3.370652 7.70513,-6.42618 8.21614,-6.790058 0.82616,-0.58825 3.78592,2.75141 26.70896,30.137144 14.17891,16.93928 25.70448,31.10597 25.61239,31.48148 -0.18106,0.73785 -50.84136,61.81598 -51.28419,61.83019 -0.14728,0.004 -3.9335,-3.0349 -8.41403,-6.75472 z"
       style="fill:#ffffff;stroke-width:0.535253" />
  </g>
</svg>
