<?xml version="1.0" encoding="UTF-8" standalone="no"?>
<svg
   xmlns:dc="http://purl.org/dc/elements/1.1/"
   xmlns:cc="http://creativecommons.org/ns#"
   xmlns:rdf="http://www.w3.org/1999/02/22-rdf-syntax-ns#"
   xmlns:svg="http://www.w3.org/2000/svg"
   xmlns="http://www.w3.org/2000/svg"
   xmlns:sodipodi="http://sodipodi.sourceforge.net/DTD/sodipodi-0.dtd"
   xmlns:inkscape="http://www.inkscape.org/namespaces/inkscape"
   inkscape:version="1.0 (4035a4fb49, 2020-05-01)"
   sodipodi:docname="sql.svg"
   id="svg8"
   version="1.1"
   viewBox="0 0 264.58332 264.58334"
   height="1000"
   width="1000">
  <defs
     id="defs2" />
  <sodipodi:namedview
     inkscape:pagecheckerboard="true"
     inkscape:snap-page="true"
     inkscape:snap-center="true"
     inkscape:snap-object-midpoints="true"
     inkscape:snap-midpoints="true"
     inkscape:snap-smooth-nodes="true"
     inkscape:snap-intersection-paths="true"
     inkscape:object-paths="true"
     inkscape:snap-bbox-midpoints="true"
     inkscape:snap-bbox-edge-midpoints="true"
     inkscape:bbox-nodes="true"
     inkscape:bbox-paths="true"
     inkscape:snap-bbox="true"
     units="px"
     inkscape:window-maximized="1"
     inkscape:window-y="-8"
     inkscape:window-x="1912"
     inkscape:window-height="1027"
     inkscape:window-width="1920"
     showgrid="false"
     inkscape:document-rotation="0"
     inkscape:current-layer="layer1"
     inkscape:document-units="mm"
     inkscape:cy="467.60727"
     inkscape:cx="225.1997"
     inkscape:zoom="0.70710678"
     inkscape:pageshadow="2"
     inkscape:pageopacity="0.0"
     borderopacity="1.0"
     bordercolor="#666666"
     pagecolor="#ffffff"
     id="base" />
  <metadata
     id="metadata5">
    <rdf:RDF>
      <cc:Work
         rdf:about="">
        <dc:format>image/svg+xml</dc:format>
        <dc:type
           rdf:resource="http://purl.org/dc/dcmitype/StillImage" />
        <dc:title></dc:title>
      </cc:Work>
    </rdf:RDF>
  </metadata>
  <g
     id="layer1"
     inkscape:groupmode="layer"
     inkscape:label="Layer 1">
    <path
       d=""
       id="path164"
       style="fill:#000000;stroke-width:2.93981" />
    <path
       id="path184"
       d="m 74.107571,200.97913 v -2.68535 h 13.677587 c 8.62163,0 14.297642,-0.21615 15.354992,-0.58473 1.79433,-0.62551 2.71327,-1.84926 2.71327,-3.61326 0,-1.06397 -0.25198,-1.09297 -9.497698,-1.09297 -12.779055,0 -16.76481,-0.92766 -20.396314,-4.74711 l -1.587293,-1.66947 -0.158979,-12.66462 -0.15898,-12.66464 h 5.317705 5.317707 v 11.59686 c 0,6.37828 0.147973,11.9823 0.328652,12.45337 0.752268,1.96032 2.984069,2.40464 12.078868,2.40464 h 8.756372 V 174.4844 161.25698 h 5.29099 5.29096 l -9e-4,17.32793 c -9.1e-4,19.33111 -0.0826,19.82918 -3.64063,22.20601 -3.35878,2.24373 -4.95469,2.43527 -22.152058,2.65873 l -16.534298,0.21483 v -2.68535 z m 131.155389,-5.28564 -2.91748,-2.60032 -11.87058,-0.18017 c -11.04752,-0.16758 -12.05357,-0.26431 -14.50948,-1.39378 -3.22979,-1.48537 -4.94183,-3.00882 -5.89485,-5.24543 -0.9169,-2.15188 -1.05684,-32.00979 -0.16118,-34.37388 0.7643,-2.01722 2.45192,-3.74582 4.99118,-5.11238 1.99382,-1.073 2.95269,-1.14843 16.55596,-1.30249 15.93222,-0.18038 18.57477,0.17338 21.84372,2.92394 3.43871,2.8935 3.63934,4.02171 3.64899,20.51987 0.007,8.98496 -0.2155,15.6221 -0.561,16.86641 -0.56179,2.02328 -2.19682,4.11317 -3.68727,4.71305 -0.53837,0.21667 0.4068,1.40475 3.20465,4.02823 l 3.96823,3.72089 -5.84672,0.0181 -5.84673,0.018 -2.9175,-2.6003 z m -11.67472,-10.60696 -2.81469,-2.62532 5.79113,-0.0202 c 5.60028,-0.0201 5.84083,0.0274 7.30012,1.42557 1.2653,1.21223 1.58912,1.31904 2.00499,0.66137 0.2759,-0.43635 0.49865,-7.00518 0.50207,-14.80543 0.008,-19.31315 0.19637,-19.04751 -13.48192,-19.04751 -6.28765,0 -8.61772,0.18837 -9.78245,0.79061 -3.14602,1.62687 -3.18043,1.81457 -3.18043,17.3427 0,18.96171 -0.0648,18.845 10.48658,18.88232 l 5.98924,0.0212 z M 0.14918062,171.35196 0.29848052,149.70109 1.5901575,148.32666 c 2.4046167,-2.55867 9.3019995,-3.74449 12.8786715,-2.21412 0.936415,0.40066 2.339114,1.41256 3.117111,2.24866 0.836969,0.89949 4.482897,8.64931 8.929396,18.9804 4.133158,9.60313 7.55751,17.51319 7.609643,17.57793 0.05219,0.0649 3.621507,-7.83241 7.931909,-17.54923 8.069903,-18.19173 9.215432,-20.13329 12.640803,-21.4247 3.528039,-1.33012 10.277095,-0.0509 12.562676,2.38106 l 1.291691,1.37443 0.14938,21.65087 0.149381,21.65086 h -5.301326 -5.301305 l -0.138982,-18.86085 -0.138983,-18.86085 -7.671915,17.06554 c -8.439415,18.77279 -9.09019,19.75918 -13.469662,20.41591 -1.321788,0.19817 -3.484724,0.19817 -4.806532,0 -4.427059,-0.66388 -5.018922,-1.5785 -13.469653,-20.81491 l -7.671914,-17.4636 -0.138782,19.25939 -0.138801,19.25937 H 5.3014813 0 Z M 121.72634,190.35733 v -2.64548 h 14.25613 14.25612 l 1.48452,-1.27611 c 1.41148,-1.21332 1.4933,-1.53312 1.66279,-6.49833 0.15677,-4.59066 0.0504,-5.38014 -0.87845,-6.52809 -1.04115,-1.28665 -1.20716,-1.31009 -11.28928,-1.59443 -9.11475,-0.25705 -10.52091,-0.41882 -12.87152,-1.48085 -5.38755,-2.43418 -6.62031,-4.53175 -6.62031,-11.26468 0,-6.24102 1.09729,-8.81068 4.65181,-10.89376 4.02082,-2.35637 7.46769,-2.76846 23.25807,-2.78053 l 14.41791,-0.0119 v 2.6455 2.64547 h -14.01271 -14.01275 l -1.68846,1.50864 c -1.47423,1.31724 -1.71816,1.91914 -1.92247,4.74377 -0.31081,4.29681 0.21915,6.82264 1.7534,8.3569 1.22768,1.22766 1.50893,1.26393 9.88552,1.27466 12.46283,0.0161 16.63651,1.09702 18.96257,4.91185 0.84326,1.38302 1.0313,2.67185 1.03293,7.07964 0.002,7.56724 -0.98398,9.6123 -5.8181,12.05798 -4.06137,2.05473 -7.21728,2.39436 -22.24813,2.39436 h -14.25959 z m 111.11044,2.27995 c -5.32158,-0.89079 -9.07642,-3.49472 -10.03956,-6.96225 -0.31689,-1.1409 -0.53769,-9.78149 -0.53943,-21.11119 l -0.002,-19.17978 h 5.29097 5.29097 v 19.0226 c 0,13.09817 0.18757,19.43438 0.60242,20.34477 1.22404,2.6865 2.85246,2.96042 17.59913,2.96042 h 13.54428 v 2.64548 2.64549 l -15.21154,-0.072 c -8.36634,-0.0397 -15.80677,-0.17178 -16.53429,-0.29348 z m 26.78665,-32.17601 c -1.12703,-0.99542 -4.22225,-2.92291 -6.87826,-4.28331 -8.79503,-4.50483 -13.79127,-8.83884 -14.20423,-12.32148 -0.12838,-1.08311 0.24664,-1.3949 2.76142,-2.2956 1.76522,-0.63224 4.94741,-1.15419 8.08892,-1.32674 3.46123,-0.19018 5.11503,-0.48005 4.98639,-0.87414 -0.25049,-0.76726 -8.94323,-6.90062 -12.01712,-8.47893 -1.30951,-0.67237 -4.34222,-1.86947 -6.73933,-2.66019 -3.25211,-1.07278 -4.63127,-1.82094 -5.43349,-2.94756 -1.25089,-1.7567 -7.91796,-15.60567 -9.93143,-20.62977 -4.0044,-9.99191 -13.10944,-20.770752 -22.96636,-27.188247 -5.66115,-3.685796 -10.07302,-5.381974 -15.24649,-5.861611 -3.17374,-0.294262 -4.41285,-0.679811 -6.18896,-1.925708 -3.5261,-2.473476 -9.96344,-5.333942 -11.5734,-5.142707 -3.45801,0.410766 -2.90819,2.899681 2.11564,9.577486 2.03141,2.700209 3.9512,6.340533 6.54344,12.407796 2.46755,5.775398 4.29834,9.283512 5.59228,10.71574 1.05803,1.171136 1.92067,2.664358 1.91696,3.318261 -0.003,0.65394 -0.63901,3.09369 -1.41178,5.42173 -1.94714,5.866 -2.03135,13.64672 -0.20582,19.01594 1.15633,3.40093 3.01388,6.1162 4.18415,6.1162 0.27032,0 0.6614,-1.58662 0.86908,-3.52583 0.20767,-1.9392 0.68101,-4.534 1.05186,-5.76623 0.65533,-2.17756 3.19292,-6.05178 3.96387,-6.05178 0.21039,0 0.65374,0.90525 0.98525,2.01165 1.67495,5.5905 9.25472,18.29229 13.77295,23.08003 l 2.45842,2.60503 -2.28505,-1.75236 c -5.00942,-3.84172 -10.97207,-10.30341 -12.81034,-13.88249 -1.99199,-3.87841 -2.3078,-3.80902 -2.89692,0.63648 -0.64213,4.84561 -1.80082,6.34916 -4.89286,6.34916 -1.98931,0 -5.57457,-3.95991 -6.97562,-7.70458 -2.41794,-6.46252 -2.4301,-13.83543 -0.037,-22.36207 l 1.08798,-3.87634 -1.37524,-1.634407 c -1.78549,-2.12192 -6.7156,-11.976514 -7.93761,-15.866119 -0.58736,-1.86954 -2.14481,-4.606837 -4.06408,-7.142831 -4.36901,-5.772901 -5.3449,-7.796616 -4.99994,-10.368479 0.84431,-6.294716 8.55819,-6.599096 17.37554,-0.68563 2.84594,1.908689 3.96408,2.334134 6.93403,2.638414 5.84649,0.599002 9.8048,2.13936 16.03824,6.241263 7.10549,4.675724 15.6753,13.059308 19.92425,19.491184 1.634,2.473547 4.19807,7.354465 5.69792,10.846515 1.49982,3.49204 4.07755,9.08725 5.7283,12.43379 l 3.00137,6.08462 5.86297,2.91004 c 3.22462,1.60051 7.51033,4.08589 9.52376,5.52306 3.65615,2.60974 10.27449,8.89441 10.27449,9.7565 0,0.55033 -3.33348,1.47275 -7.72096,2.13648 -1.77302,0.26821 -4.23647,0.76037 -5.47435,1.09371 -2.22887,0.60017 -2.24123,0.61668 -1.27369,1.70287 0.53737,0.60323 2.8856,2.35878 5.21834,3.9012 5.73243,3.79035 14.19252,12.49198 12.02842,12.37187 -0.21825,-0.0119 -1.31895,-0.83646 -2.44597,-1.83188 z M 182.41351,82.818287 c -0.48625,-0.945778 -1.27173,-2.252368 -1.74549,-2.90354 -0.79817,-1.097083 -0.7961,-1.209027 0.0282,-1.525327 1.18377,-0.454261 3.46748,0.816033 4.14656,2.306457 0.38331,0.841259 0.36624,1.589179 -0.0575,2.519217 -0.79908,1.753784 -1.30988,1.668316 -2.37168,-0.396807 z"
       style="fill:#ffffff;stroke-width:0.529096" />
  </g>
</svg>
