<svg xmlns="http://www.w3.org/2000/svg" xmlns:xlink="http://www.w3.org/1999/xlink" viewBox="0 0 50 50" fill="#FFFFFF">
  <path d="M44.082031 25.207031L46.902344 20.429688C47.015625 20.191406 47.03125 19.917969 46.945313 19.671875L41.359375 3.671875C41.1875 3.183594 40.675781 2.90625 40.179688 3.027344L23.761719 7.027344C23.449219 7.105469 23.191406 7.328125 23.070313 7.628906L21.324219 12L16 12C15.722656 12 15.453125 12.117188 15.265625 12.320313L3.265625 25.320313C2.894531 25.722656 2.914063 26.347656 3.308594 26.722656L15.894531 38.722656C16.078125 38.902344 16.328125 39 16.582031 39L22.320313 39L24.070313 43.371094C24.199219 43.695313 24.488281 43.925781 24.828125 43.984375L42.289063 46.984375C42.34375 46.996094 42.402344 47 42.457031 47C42.921875 47 43.332031 46.679688 43.433594 46.214844L46.976563 29.984375C47.03125 29.734375 46.988281 29.472656 46.851563 29.25 Z M 21.324219 12L35.417969 9.417969L28 24L11.167969 24 Z M 22.324219 39L11.167969 28L28 28L36.75 41.167969 Z M 40.386719 38.898438L32 26L39.332031 11.417969L44.082031 25.210938Z" fill="#FFFFFF" />
</svg>