<svg version="1" xmlns="http://www.w3.org/2000/svg" width="1333.333" height="1333.333" viewBox="0 0 1000.000000 1000.000000"><path d="M0 500v500h1000V0H0v500zm465.5-310.7c59.1 6.6 89.7 18.6 115.8 45.4 29.7 30.4 44.7 68.7 46.4 117.8 1.5 44.3-7.6 80.2-28.1 111-17.2 25.8-38.7 44.8-64.5 57.2-9.5 4.6-30.2 12-39.8 14.3-2.9.6-5.1 1.5-4.8 2 .2.4 3.3 1.8 6.7 3 9.1 3.3 26.7 12.2 33.5 16.8 10.6 7.3 26.1 25.5 43.6 51.4 10.6 15.6 9.5 13.3 58.8 117 22 46.3 40.5 85.1 41 86 .9 1.7-4.2 1.8-100 1.8H473l-49.3-99.2C374 613.7 365.7 597.9 357 586c-6.1-8.2-9.9-11.7-17.6-16.4-12-7.3-25.5-10.5-43.6-10.6H286v254H107V186.9l172.3.4c148 .4 174.2.6 186.2 2zM893 732.5V813H722V652h171v80.5z"/><path d="M286.5 314.1c-.3.8-.4 29.5-.3 63.9l.3 62.5 34.5.3c20 .2 39-.1 45.2-.8 10.3-1 36.1-6.2 46.4-9.3 28.5-8.6 43.7-46.2 32.1-79.5-7.4-21.4-22.1-31.5-52.9-36.2-4.2-.6-28.1-1.4-56-1.7-41-.5-48.8-.4-49.3.8z"/></svg>